<svg width="20" height="20" viewBox="0 0 20 20" fill="none" xmlns="http://www.w3.org/2000/svg">
<path d="M6.66683 9.99984H10.8335M13.3335 7.91659C12.8906 7.39878 12.2997 7.02915 11.6403 6.85746C10.9809 6.68578 10.2847 6.7203 9.64553 6.95637C9.00635 7.19244 8.45487 7.61872 8.06537 8.17779C7.67587 8.73686 7.46705 9.40188 7.46705 10.0833C7.46705 10.7646 7.67587 11.4296 8.06537 11.9887C8.45487 12.5478 9.00635 12.9741 9.64553 13.2101C10.2847 13.4462 10.9809 13.4807 11.6403 13.309C12.2997 13.1374 12.8906 12.7677 13.3335 12.2499M3.3335 1.6665V18.3332L5.00016 17.4998L6.66683 18.3332L8.3335 17.4998L10.0002 18.3332L11.6668 17.4998L13.3335 18.3332L15.0002 17.4998L16.6668 18.3332V1.6665L15.0002 2.49984L13.3335 1.6665L11.6668 2.49984L10.0002 1.6665L8.3335 2.49984L6.66683 1.6665L5.00016 2.49984L3.3335 1.6665Z" stroke="#6A717D" stroke-width="2" stroke-linecap="round" stroke-linejoin="round"/>
</svg>
