<svg width="20" height="20" viewBox="0 0 20 20" fill="none" xmlns="http://www.w3.org/2000/svg">
<path d="M8.74984 5.83317C8.97996 5.83317 9.1665 5.64662 9.1665 5.4165C9.1665 5.18638 8.97996 4.99984 8.74984 4.99984C8.51972 4.99984 8.33317 5.18638 8.33317 5.4165C8.33317 5.64662 8.51972 5.83317 8.74984 5.83317Z" fill="#6A717D"/>
<path d="M1.6665 5.83317V10.9765C1.6666 11.4185 1.84225 11.8423 2.15484 12.1548L7.7465 17.7465C8.0926 18.0953 8.55496 18.3044 9.04541 18.3341C9.53586 18.3638 10.0201 18.2119 10.4057 17.9073M10.9765 1.6665C11.4185 1.6666 11.8423 1.84225 12.1548 2.15484L17.7465 7.7465C17.934 7.93243 18.0827 8.15363 18.1843 8.39735C18.2858 8.64107 18.3381 8.90248 18.3381 9.1665C18.3381 9.43053 18.2858 9.69194 18.1843 9.93566C18.0827 10.1794 17.934 10.4006 17.7465 10.5865L13.9198 14.4132C13.7339 14.6006 13.5127 14.7494 13.269 14.851C13.0253 14.9525 12.7639 15.0048 12.4998 15.0048C12.2358 15.0048 11.9744 14.9525 11.7307 14.851C11.487 14.7494 11.2658 14.6006 11.0798 14.4132L5.48817 8.8215C5.17559 8.50902 4.99993 8.08516 4.99984 7.64317V2.49984C4.99984 2.27882 5.08763 2.06686 5.24391 1.91058C5.4002 1.7543 5.61216 1.6665 5.83317 1.6665H10.9765ZM9.1665 5.4165C9.1665 5.64662 8.97996 5.83317 8.74984 5.83317C8.51972 5.83317 8.33317 5.64662 8.33317 5.4165C8.33317 5.18638 8.51972 4.99984 8.74984 4.99984C8.97996 4.99984 9.1665 5.18638 9.1665 5.4165Z" stroke="#6A717D" stroke-width="2" stroke-linecap="round" stroke-linejoin="round"/>
</svg>
