<svg width="20" height="20" viewBox="0 0 20 20" fill="none" xmlns="http://www.w3.org/2000/svg">
<path d="M5.83334 9.99984H16.6667C16.8877 9.99984 17.0997 10.0876 17.2559 10.2439C17.4122 10.4002 17.5 10.6122 17.5 10.8332C17.5 11.9382 17.061 12.998 16.2796 13.7794C15.4982 14.5609 14.4384 14.9998 13.3333 14.9998H12.835C12.7606 14.9998 12.6876 15.0197 12.6235 15.0575C12.5594 15.0952 12.5066 15.1495 12.4706 15.2145C12.4345 15.2796 12.4165 15.3531 12.4185 15.4274C12.4204 15.5018 12.4423 15.5743 12.4817 15.6373L13.7683 17.6957C13.8078 17.7587 13.8296 17.8312 13.8315 17.9056C13.8335 17.9799 13.8155 18.0534 13.7794 18.1185C13.7434 18.1835 13.6906 18.2378 13.6265 18.2755C13.5624 18.3133 13.4894 18.3332 13.415 18.3332H4.50167C4.4273 18.3332 4.35428 18.3133 4.29019 18.2755C4.22611 18.2378 4.17329 18.1835 4.13724 18.1185C4.10118 18.0534 4.0832 17.9799 4.08515 17.9056C4.0871 17.8312 4.10892 17.7587 4.14834 17.6957L5.83334 14.9998M6.66667 14.9998C5.5616 14.9998 4.50179 14.5609 3.72039 13.7794C2.93899 12.998 2.5 11.9382 2.5 10.8332V3.33317C2.5 2.89114 2.67559 2.46722 2.98816 2.15466C3.30072 1.8421 3.72464 1.6665 4.16667 1.6665H10.8333C11.2754 1.6665 11.6993 1.8421 12.0118 2.15466C12.3244 2.46722 12.5 2.89114 12.5 3.33317V9.99984" stroke="#6A717D" stroke-width="2" stroke-linecap="round" stroke-linejoin="round"/>
</svg>
